<svg width="64" height="64" viewBox="0 0 64 64" xmlns="http://www.w3.org/2000/svg">
  <rect width="64" height="64" rx="12" fill="#0B1A2B"></rect>
  
  <!-- R stylisé -->
  <path d="M18 44 L18 20 L32 20 C38 20 42 24 42 30 C42 34 40 36 36 38 L44 44 L36 44 L30 39 L26 39 L26 44 Z 
           M26 26 L26 33 L32 33 C35 33 36 32 36 30 C36 28 35 26 32 26 Z" fill="#F97316"></path>
  
  <!-- Courbe performance -->
  <path d="M20 42 C30 30, 40 28, 46 20" stroke="#F97316" stroke-width="3" fill="none" stroke-linecap="round"></path>
  
  <!-- Waypoint -->
  <circle cx="46" cy="20" r="3" fill="#F97316"></circle>
</svg>